<?xml version="1.0" encoding="UTF-8"?>
<svg width="44px" height="44px" viewBox="0 0 44 44" version="1.1" xmlns="http://www.w3.org/2000/svg" xmlns:xlink="http://www.w3.org/1999/xlink">
    <!-- Generator: Sketch 52.6 (67491) - http://www.bohemiancoding.com/sketch -->
    <title>icn_customtour</title>
    <desc>Created with Sketch.</desc>
    <defs>
        <linearGradient x1="50%" y1="0%" x2="50%" y2="100%" id="linearGradient-1">
            <stop stop-color="#F1D49A" offset="0%"></stop>
            <stop stop-color="#E2BF7D" offset="100%"></stop>
        </linearGradient>
        <circle id="path-2" cx="22" cy="22" r="22"></circle>
    </defs>
    <g id="斑马旅游改版" stroke="none" stroke-width="1" fill="none" fill-rule="evenodd">
        <g id="私人订制" transform="translate(-165.000000, -2392.000000)">
            <g id="Btnnav" transform="translate(0.000000, 2388.000000)">
                <g id="Navigationbar">
                    <g id="icn_customtour" transform="translate(165.000000, 4.000000)">
                        <mask id="mask-3" fill="white">
                            <use xlink:href="#path-2"></use>
                        </mask>
                        <use id="蒙版" fill="url(#linearGradient-1)" xlink:href="#path-2"></use>
                        <g id="logo_white" mask="url(#mask-3)" fill-rule="nonzero">
                            <g transform="translate(6.000000, 6.000000)">
                                <rect id="矩形" fill="#FFFFFF" opacity="0" x="0" y="0" width="32" height="32"></rect>
                                <path d="M15.3386667,15.264 C15.7147682,15.1059088 16.0017476,14.7896457 16.1226667,14.4 C15.7800873,14.3819467 15.4970022,14.1263577 15.4441604,13.787397 C15.3913187,13.4484364 15.583172,13.1188076 15.904,12.9973333 L15.6373333,12.336 C15.5900472,12.2179402 15.4973627,12.1237936 15.3800574,12.0746658 C15.262752,12.0255379 15.1306385,12.0255382 15.0133333,12.0746667 L13.36,12.7466667 C13.242316,12.7928281 13.1482294,12.8845114 13.0990391,13.0009619 C13.0498488,13.1174125 13.0497145,13.2487825 13.0986667,13.3653333 L13.5573333,14.496 C13.6914916,14.8342374 13.9546367,15.105249 14.2887768,15.2493094 C14.6229168,15.3933698 15.0006267,15.3986549 15.3386667,15.264 Z" id="路径" fill="#F9E6BE"></path>
                                <path d="M30.8426667,18.9386667 C30.9087775,18.3721594 30.9426099,17.8023501 30.944,17.232 C30.9451823,15.7287981 30.716771,14.2342327 30.2666667,12.8 L26.5333333,13.712 L26.24,12.752 L29.504,10.8426667 C28.4930138,8.75040018 27.0062288,6.923883 25.1626667,5.50933333 L22.352,8.70933333 C22.1973333,8.60266667 22.0586667,8.51733333 21.9306667,8.43733333 C22.8712678,6.68629636 22.936419,4.59553713 22.1066667,2.78933333 C21.3866667,1.25866667 20.0746667,0 19.2586667,0 C18.4426667,0 17.0666667,1.29066667 16.4053333,2.46933333 L16.176,2.46933333 C14.8603599,2.47433472 13.5511847,2.65367379 12.2826667,3.00266667 L12.2506667,3.00266667 C11.9786667,3.07733333 11.7173333,3.16266667 11.4453333,3.25333333 L9.22666667,3.92533333 L12.3413333,8.36266667 C11.033129,8.78240321 9.83072949,9.47910368 8.816,10.4053333 C7.9676579,11.1886925 6.98952485,11.8185235 5.92533333,12.2666667 L2.896,13.5466667 C1.49121861,14.138367 0.751105214,15.687335 1.17333333,17.152 L1.65866667,18.8266667 C2.05551285,20.2324127 3.33931412,21.2023474 4.8,21.2 C4.9421156,21.2077882 5.08455107,21.2077882 5.22666667,21.2 C5.94988251,21.10041 6.64303576,20.845708 7.25866667,20.4533333 L7.30666667,20.4213333 C7.69617704,20.1574894 8.12442668,19.9559602 8.576,19.824 C9.16585782,19.7111347 9.77511955,19.7571515 10.3413333,19.9573333 C11.1261454,20.2438573 11.937125,20.4528542 12.7626667,20.5813333 L11.664,29.7386667 C8.43710722,28.5887833 5.78419816,26.2285167 4.26666667,23.1573333 C3.73499349,23.2100129 3.20093522,23.2349356 2.66666667,23.232 C5.2448562,29.0215668 11.2285628,32.5216775 17.5386756,31.9312364 C23.8487884,31.3407953 29.0792944,26.7913639 30.5386667,20.624 L28,19.9413333 L28.1866667,19.0133333 L30.8426667,18.9386667 Z M13.7173333,25.008 C19.0446946,24.8854567 23.7796439,21.5817104 25.7333333,16.624 C26.017688,17.6192657 26.231551,18.633333 26.3733333,19.6586667 C23.9107053,24.3590216 18.9050649,27.1620128 13.6106667,26.8053333 L13.504,26.8053333 L13.7173333,25.008 Z M8.448,18.32 L6.368,13.68 L6.50133333,13.6213333 C7.72069505,13.1076713 8.84140258,12.3857985 9.81333333,11.488 C10.7156438,10.662124 11.793257,10.0512941 12.9653333,9.70133333 L16.88,8.53333333 C16.9759742,9.05095524 16.916591,9.58540386 16.7093333,10.0693333 L17.344,10.4426667 L16.7146667,10.0533333 L17.968,10.832 C18.0213333,10.7573333 19.1466667,8.87466667 17.488,5.936 C17.1117511,5.23273535 17.0958811,4.39162379 17.4453333,3.67466667 C17.8236087,2.78880544 18.4542597,2.0338791 19.2586667,1.504 C20.1733111,2.22050895 20.8135899,3.22988967 21.072,4.36266667 C21.4773333,6.10666667 20.896,7.84533333 19.3386667,9.52 L20.4053333,10.5226667 C20.6536817,10.2586915 20.8869411,9.98091691 21.104,9.69066667 C21.9786667,10.224 23.6106667,11.504 24.88,14.3093333 C23.7400373,19.5203825 19.2284642,23.3066858 13.8986667,23.5253333 L14.2453333,20.64 C15.260492,20.6331722 16.2565065,20.3630355 17.136,19.856 C18.5969123,18.9289192 19.6159905,17.4455729 19.9573333,15.7493333 L18.496,15.4986667 C18.22834,16.7726802 17.4595429,17.8855141 16.3626667,18.5866667 C15.0026667,19.3813333 13.1626667,19.3653333 10.8586667,18.5493333 C10.0872427,18.2711141 9.25804685,18.1922304 8.448,18.32 Z M16.176,30.5226667 C15.1396135,30.5217877 14.1068635,30.4000771 13.0986667,30.16 L13.3333333,28.2666667 L13.4986667,28.2666667 C13.872,28.2666667 14.24,28.3093333 14.608,28.3093333 C19.3859939,28.2771015 23.8563007,25.9466663 26.6186667,22.048 C26.6773333,23.072 26.6933333,24.1813333 26.656,25.3813333 C24.1456155,28.6234452 20.2764047,30.521623 16.176,30.5226667 Z" id="形状" fill="#F9E6BE"></path>
                            </g>
                        </g>
                    </g>
                </g>
            </g>
        </g>
    </g>
</svg>